<?xml version="1.0" standalone="no"?>
<!DOCTYPE svg PUBLIC "-//W3C//DTD SVG 20010904//EN"
 "http://www.w3.org/TR/2001/REC-SVG-20010904/DTD/svg10.dtd">
<svg version="1.0" xmlns="http://www.w3.org/2000/svg"
 width="260.000000pt" height="260.000000pt" viewBox="0 0 260.000000 260.000000"
 preserveAspectRatio="xMidYMid meet">
<metadata>
Created by potrace 1.11, written by Peter Selinger 2001-2013
</metadata>
<g transform="translate(0.000000,260.000000) scale(0.100000,-0.100000)"
fill="#000000" stroke="none">
<path d="M0 1300 l0 -1300 1300 0 1300 0 0 1300 0 1300 -1300 0 -1300 0 0
-1300z m717 508 c33 -95 91 -264 129 -375 38 -112 71 -203 74 -203 3 0 57 169
120 375 l115 375 159 -2 158 -3 114 -374 c63 -206 115 -376 117 -377 2 -2 62
166 133 374 l130 377 163 3 c129 2 162 0 159 -10 -3 -7 -107 -309 -233 -670
l-228 -658 -112 0 -112 0 -144 460 c-79 252 -145 457 -148 454 -3 -3 -68 -208
-146 -457 l-141 -452 -113 0 -114 0 -224 645 c-123 355 -226 655 -229 668 l-6
22 160 0 160 0 59 -172z"/>
</g>
</svg>
