<svg id="Layer_1" data-name="Layer 1" xmlns="http://www.w3.org/2000/svg" width="78.21" height="20.97" viewBox="0 0 78.21 20.97"><defs><style>.cls-1{fill:#31363a}</style></defs><title>logo</title><path class="cls-1" d="M408.75 402.32l3.72-12.06h4.89l3.69 12.06 4.17-12.06h5.07l-7.32 21h-3.48l-4.59-14.58-4.56 14.58h-3.48l-7.32-21h5.07zM447.9 390.26v4.17h-10.44v4.32h9.39v4h-9.39v4.35h10.77v4.14h-15.45v-21h15.12zM461.58 411.23h-9.18v-21h8.16a11.78 11.78 0 0 1 3.67.51 5.28 5.28 0 0 1 2.33 1.38 5.43 5.43 0 0 1 1.41 3.66 4.29 4.29 0 0 1-1.59 3.66 5.69 5.69 0 0 1-.75.52l-.75.34a5.5 5.5 0 0 1 3.1 1.76 4.89 4.89 0 0 1 1.15 3.31 5.64 5.64 0 0 1-1.5 3.87q-1.73 1.99-6.05 1.99zm-4.5-12.48h2.22a7.52 7.52 0 0 0 2.9-.42 1.77 1.77 0 0 0 .94-1.81 1.88 1.88 0 0 0-.87-1.85 6.9 6.9 0 0 0-2.94-.45h-2.25v4.53zm0 8.52h3.21a7.09 7.09 0 0 0 3-.5 2 2 0 0 0 1-2 1.88 1.88 0 0 0-1.07-1.92 9.13 9.13 0 0 0-3.4-.46h-2.76v4.83zM473.07 390.26h4.68v21h-4.68v-21z" transform="translate(-399.54 -390.26)"/></svg>