<svg id="Layer_1" data-name="Layer 1" xmlns="http://www.w3.org/2000/svg" width="232.01" height="74.2" viewBox="0 0 232.01 74.2"><defs><style>.cls-1{fill:#31363a}</style></defs><title>signature</title><path class="cls-1" d="M399.86 362.64l-2.88 2.3-2.52 2-2.09 1.44a28.57 28.57 0 0 1-2.81 1.87l-3.31 1.75q-1 .5-3.17 1.37 1.22 10.3-1.44 14.26l-2 2a26.53 26.53 0 0 1-9.07 1.19 68.26 68.26 0 0 1-11.57-1.07 36.08 36.08 0 0 1-10.69-3.64q-4.86-2.59-6.16-6.12a10.64 10.64 0 0 1-.68-3.06 22.4 22.4 0 0 1 0-2.81 9.35 9.35 0 0 1 .72-2.88q.65-1.62 1.08-2.59a18.87 18.87 0 0 1 1.55-2.63q1.12-1.66 1.66-2.38t1.91-2.41q1.37-1.69 1.73-2.2l2-2q10.58-9.07 18.5-13.18-4.1-.07-4.25-.43a5.28 5.28 0 0 1-.43-3.46 82.11 82.11 0 0 1 4.25-7.13 8.86 8.86 0 0 0 .58-.94l2.66-4.25q.86-1.44 2.05-3.89a38.6 38.6 0 0 0 1.91-4.61l.14-.5 2-2-.14.43a24.47 24.47 0 0 0-.83 4 32.51 32.51 0 0 0-.22 4.46q0 2.41.14 4t.43 4.46q.32 2.92.4 4.07l.22 2.38a38.83 38.83 0 0 1 12.6-1.37 21 21 0 0 1 4.54.79l7-3 7.63-3.31-2 2-11.16 4.82a14.18 14.18 0 0 1 7.27 6q2.3 4.1.14 9.22a9.11 9.11 0 0 1-.94 1.69q-.58.83-1.4 1.8t-1.26 1.55zm-32.62-2.23l3.38-3.1 4-3.6a43 43 0 0 1 3.53-2.81l-.65-8.5-.29.07-1.54 1.53-2.81-.07q-9.43 3.74-21.46 14a6.46 6.46 0 0 0-.72.94q-1.51 1.8-2.23 2.81l-1.94 2.88a16.91 16.91 0 0 0-1.76 3.17 32.85 32.85 0 0 0-1 3.17 10.12 10.12 0 0 0-.36 3.56 13.88 13.88 0 0 0 .79 3.56 10.47 10.47 0 0 0 4.18 4.9 27.2 27.2 0 0 0 7.38 3.46 59 59 0 0 0 17.68 2.52 29.25 29.25 0 0 0 7.13-.86q1.66-4.32.36-13.75-15.19 5.62-20.23 3.24-3.31-1.51-1.15-6.7A15.36 15.36 0 0 1 361 368q1-1.4 2.27-3t1.94-2.56zm-.43.58q-.43.65-1.76 2.3t-2.16 2.92a17.79 17.79 0 0 0-1.4 2.56q-1.58 3.82-.22 5.65t5.73 1.68q5.26-.15 13.75-3.1-.15-.79-.54-3.38t-.54-3.67q-.72-5.76-1.44-14.54l-1.87 1.37a29 29 0 0 0-2.52 2l-2.3 1.94q-.86.72-2.45 2.16zM377.33 341l-.07-1q-.15-1.15-.43-4t-.36-4.1q-.07-1.22-.18-4.07a21.74 21.74 0 0 1 .11-4.07q-1 2-4.25 7.06a81.83 81.83 0 0 0-4.25 7.13 5.36 5.36 0 0 0 .43 3.46q.22.36 6.55.5a25 25 0 0 1 2.45-.91zm15.84.43a17.84 17.84 0 0 0-3.1-.43 38 38 0 0 0-10.44.86l.58 7.49a107.3 107.3 0 0 1 12.96-7.88zm1.44.43a94.56 94.56 0 0 0-14.33 8.14q.72 8.35 1.37 14 .14 1.15.61 4t.61 4.28a50 50 0 0 0 5.4-2.23q1.15-.58 2.16-1.15l1.66-1a17.94 17.94 0 0 0 1.62-.94q.9-.58 1.26-.86l1.44-1 1.22-.94q.29-.22 1.51-1.22l1.51-1.3a21.78 21.78 0 0 0 2.81-4q2.3-5.47-.5-9.72a14.92 14.92 0 0 0-8.35-6.02zM417.57 371.71a24.67 24.67 0 0 1-7.06 4.68q-3.31 1.44-3-.79.15-1.66 2.3-5.11l2-2q-4.18 6.77-1 6.41 2.45-.29 7.2-3.82 1.08-2.23-1.51-2.16a19.21 19.21 0 0 0-2.23.22 13.27 13.27 0 0 1-1.51.14l2-2q.22 0 2.23-.29-1.44-2.16-5.18 1.51l.94-.94 1.22-1.22q.5-.5 1.19-1.12a4.18 4.18 0 0 1 1.26-.83 5.06 5.06 0 0 1 1.15-.29 1.31 1.31 0 0 1 1.08.4 3.16 3.16 0 0 1 .79 1.4l-.94.94a2 2 0 0 1 1.73.54q.36.54-.65 2.34zM432.26 328.44l2-2-1.66 7.7-1.8 8.21q-.58 2.59-1.76 7.52t-2.11 8.13q-.94 3.2-2.27 7.34t-2.77 7.74l5.18-6.55 2-2q-.58 1.44-.94 2.52a5.55 5.55 0 0 0-.32 2q0 .9.11 1.51a1.84 1.84 0 0 0 .68 1.15q.61.54 1 .86a5.69 5.69 0 0 0 1.58.68q1.15.36 1.87.54l2.3.54q.86.22 1.3.36l-2 2q-.43-.07-1.37-.29l-2.16-.5-1.76-.58a6.81 6.81 0 0 1-1.55-.65l-1.08-.79a1.58 1.58 0 0 1-.76-1q-.11-.54-.22-1.33a4.81 4.81 0 0 1 .11-1.73 14.17 14.17 0 0 1 .72-2.16l-5.18 6.55-2 2q1.51-3.67 2.92-7.92t2.34-7.52q.93-3.28 2.16-8.39l1.8-7.63 1.87-8.42z" transform="translate(-341.37 -316.63)"/><path class="cls-1" d="M438.67 365l2-2q-.15.36-.47 1t-.54 1.26q-.22.58-.43 1.08-.29.86-1 3.38a18.27 18.27 0 0 0-1 5.18q.5 3.82 6.55-2.09-5.47 5.62-7.27 5.69-1.08.07-1.3-1.58a18.36 18.36 0 0 1 1-5.18 29.76 29.76 0 0 1 1-3.38zm6.91 6q3.24-3.24 3.53-3a3.45 3.45 0 0 1 .07 1.33q-.07 1-.22 2.2l-.14 1.22a6 6 0 0 0 .25 1.51 1.25 1.25 0 0 0 .58.72 2 2 0 0 0 .79.25h1.33a9.71 9.71 0 0 1 1.73.14l-2 2q-.79-.07-1.73-.11h-1.33a1.85 1.85 0 0 1-.83-.22 1.11 1.11 0 0 1-.58-.76 8.67 8.67 0 0 1-.22-1.55l.14-1.22q.14-1.22.22-2.2a3.46 3.46 0 0 0-.07-1.33q-.22-.07-1.52 1.08zM480.14 346.22q-.93 1.08-1.66 2-2.81 3.89-3 6.8a3.39 3.39 0 0 0 2.38 3.78q2.52.86 7.63-.94a157.37 157.37 0 0 0 17.93-8.42q.07-1.44.07-4.25t.07-4.18l2-2 .64 1.99-.65.65q-.07 5.4-.14 6.77 1.3-.65 4.18-2.3l4.61-2.45 4.18-2.16 4.61-2.38q2.16-1.08 4.25-2a27.52 27.52 0 0 0-11-3.24 41.41 41.41 0 0 0-17.78 1.94 65.68 65.68 0 0 0-16.92 9.07l2-2a66.82 66.82 0 0 1 17-9.07 41 41 0 0 1 17.71-1.94 26.25 26.25 0 0 1 12.17 3.89l.22-.07q2.59-1.08 5.54-2.16t6.62-2.3q3.67-1.22 5.62-1.94l-2 2-6.84 2.38q-5.26 1.8-8.06 2.88a12.46 12.46 0 0 1 5 12.17 22.17 22.17 0 0 1-3 8.35 17.61 17.61 0 0 1-1.58 2.45l-2.16 2.81q-1.22 1.51-1.87 2.38l-2 2-3.24 3-3.1 2.81q-2.45 2.23-3.46 3l-3.31 2.66a35.14 35.14 0 0 1-3.74 2.66l-3.74 2a22.93 22.93 0 0 1-4 1.91q-1.8.61-4 1.19a29.21 29.21 0 0 1-4.39.79q-7.34.72-10.37-3.46t-.22-10.94a18.68 18.68 0 0 1 .9-1.94 10.64 10.64 0 0 1 1.12-1.66l1.15-1.37a16.37 16.37 0 0 1 1.37-1.55q1-1 1.44-1.55l2-2q10.37-7.13 11.74-.79a104.54 104.54 0 0 0 1.44-10.94 177.27 177.27 0 0 1-19.87 9.43q-5.18 1.8-7.67 1t-2.34-3.78q.15-3 3-6.84a39.56 39.56 0 0 1 3.52-4.14zm8.42 17.71a23.28 23.28 0 0 0-4.32 6.34q-2.81 6.7.22 10.91t10.37 3.49q.94-.07 1.8-.22.29-1.51 1.22-5.54 2.66-11.59 2.09-15-1.08-6.91-11.38.02zm39.82-26.21l-3 1.37-2.74 1.22q-1.15.5-3.06 1.51t-2.7 1.37q-.79.36-3.1 1.58l-2.59 1.44-3 1.66-2.81 1.51q-.36 3.89-1.19 8.64t-1.62 8.06l-2 8.86-2 8.06-1.3 1.3a35 35 0 0 0 8-2.45 41.85 41.85 0 0 0 7.81-4.57q3.89-2.84 6.55-5.08t6.55-6l1.73-2.16q1.22-1.51 2.09-2.74a21 21 0 0 0 1.51-2.3 21.84 21.84 0 0 0 3-8.78 13 13 0 0 0-1.22-7.24 14.42 14.42 0 0 0-4.91-5.25zM554.73 371.71a24.67 24.67 0 0 1-7.06 4.68q-3.31 1.44-3-.79.15-1.66 2.3-5.11l2-2q-4.18 6.77-1 6.41 2.45-.29 7.2-3.82 1.08-2.23-1.51-2.16a19.21 19.21 0 0 0-2.23.22 13.27 13.27 0 0 1-1.51.14l2-2q.22 0 2.23-.29-1.44-2.16-5.18 1.51l.94-.94 1.22-1.22q.5-.5 1.19-1.12a4.18 4.18 0 0 1 1.26-.83 5.06 5.06 0 0 1 1.15-.29 1.31 1.31 0 0 1 1.08.4 3.16 3.16 0 0 1 .79 1.4l-.94.94a2 2 0 0 1 1.73.54q.36.54-.65 2.34z" transform="translate(-341.37 -316.63)"/><path class="cls-1" d="M556.24 376.68l-1.8 1.8a6.28 6.28 0 0 1 .72-2.23q-3-1.87 3.53-9l2-2q5.26-4 5.26-3.46a42.75 42.75 0 0 1-3.74 4.9 48 48 0 0 0-5 7.49 8 8 0 0 0 3.74.79q2.52.07 6.52-.22t5.94-.29l-2 2q-1.94 0-5.58.25t-5.36.29a25.73 25.73 0 0 1-4.23-.32zm3.17-10q-4.32 5.11-2.81 7 1-1.58 6-8 1.58-1.94 1.15-1.94t-4.34 2.93z" transform="translate(-341.37 -316.63)"/></svg>